<?xml version="1.0" encoding="utf-8"?>
<!-- Generator: Adobe Illustrator 25.0.1, SVG Export Plug-In . SVG Version: 6.00 Build 0)  -->
<svg version="1.1" id="Layer_1" xmlns="http://www.w3.org/2000/svg" xmlns:xlink="http://www.w3.org/1999/xlink" x="0px" y="0px"
	 viewBox="0 0 2440.5 294.2" style="enable-background:new 0 0 2440.5 294.2;" xml:space="preserve">
<style type="text/css">
	.st0{fill:#FFFFFF;}
	.st1{fill:#6E44FF;}
	.st2{fill:url(#SVGID_1_);}
	.st3{fill:url(#SVGID_2_);}
	.st4{fill:url(#SVGID_3_);}
	.st5{fill:url(#SVGID_4_);}
</style>
<g>
	<g>
		<path class="st0" d="M794.5,100.4c15.8,0,28.8,5.3,39.2,15.9c10.3,10.6,15.5,25.2,15.5,43.9v88.7h-37.3v-84.1
			c0-9.6-2.6-17-7.8-22.1c-5.2-5.1-12.1-7.7-20.8-7.7c-9.6,0-17.3,3-23.1,9c-5.8,6-8.7,14.9-8.7,26.9v78h-37.3V104.5h37.3v16.2
			C760.5,107.2,774.9,100.4,794.5,100.4z"/>
		<path class="st0" d="M1012.7,230.9c-14.8,14.7-32.9,22.1-54.3,22.1c-21.4,0-39.4-7.4-54.2-22.1c-14.7-14.7-22.1-32.8-22.1-54.2
			c0-21.4,7.4-39.4,22.1-54.2c14.7-14.7,32.8-22.1,54.2-22.1c21.4,0,39.5,7.4,54.3,22.1c14.8,14.7,22.3,32.8,22.3,54.2
			C1034.9,198.1,1027.5,216.1,1012.7,230.9z M930.5,205.3c7.4,7.5,16.7,11.3,27.9,11.3c11.2,0,20.5-3.8,28-11.3
			c7.5-7.5,11.3-17.1,11.3-28.6c0-11.6-3.8-21.1-11.3-28.6c-7.5-7.5-16.9-11.3-28-11.3c-11.2,0-20.5,3.8-27.9,11.3
			c-7.4,7.5-11.1,17-11.1,28.6C919.4,188.3,923.1,197.8,930.5,205.3z"/>
		<path class="st0" d="M1229.7,100.4c16.6,0,29.8,5.4,39.7,16.2c9.9,10.8,14.9,25.2,14.9,43.3v89H1247v-86.4
			c0-8.7-2.1-15.4-6.4-20.2c-4.2-4.8-10.2-7.2-17.9-7.2c-8.5,0-15.1,2.8-19.8,8.4c-4.7,5.6-7.1,13.7-7.1,24.3v81.2h-37.3v-86.4
			c0-8.7-2.1-15.4-6.4-20.2c-4.2-4.8-10.2-7.2-17.9-7.2c-8.3,0-14.9,2.8-19.8,8.4c-4.9,5.6-7.4,13.7-7.4,24.3v81.2h-37.3V104.5h37.3
			v15.3c8.7-12.9,22.1-19.4,40.2-19.4c17.7,0,30.8,6.9,39.3,20.8C1196.3,107.3,1210.6,100.4,1229.7,100.4z"/>
		<path class="st0" d="M1434.6,104.5h37.3v144.5h-37.3v-17c-11.2,14.1-26.9,21.1-47.1,21.1c-19.3,0-35.8-7.4-49.6-22.1
			c-13.8-14.7-20.7-32.8-20.7-54.2c0-21.4,6.9-39.4,20.7-54.2c13.8-14.7,30.3-22.1,49.6-22.1c20.2,0,35.9,7,47.1,21.1V104.5z
			 M1365.8,206c7.5,7.6,17,11.4,28.6,11.4c11.6,0,21.1-3.8,28.8-11.4c7.6-7.6,11.4-17.4,11.4-29.3c0-11.9-3.8-21.7-11.4-29.3
			c-7.6-7.6-17.2-11.4-28.8-11.4c-11.6,0-21.1,3.8-28.6,11.4c-7.5,7.6-11.3,17.4-11.3,29.3C1354.5,188.6,1358.3,198.4,1365.8,206z"
			/>
		<path class="st0" d="M1623.9,46.7h37.3v202.3h-37.3v-17c-11,14.1-26.6,21.1-46.8,21.1c-19.5,0-36.1-7.4-49.8-22.1
			c-13.8-14.7-20.7-32.8-20.7-54.2c0-21.4,6.9-39.4,20.7-54.2c13.8-14.7,30.4-22.1,49.8-22.1c20.2,0,35.8,7,46.8,21.1V46.7z
			 M1555.2,206c7.6,7.6,17.2,11.4,28.8,11.4c11.6,0,21.1-3.8,28.6-11.4c7.5-7.6,11.3-17.4,11.3-29.3c0-11.9-3.8-21.7-11.3-29.3
			c-7.5-7.6-17-11.4-28.6-11.4c-11.6,0-21.1,3.8-28.8,11.4c-7.6,7.6-11.4,17.4-11.4,29.3C1543.8,188.6,1547.6,198.4,1555.2,206z"/>
		<g>
			<path class="st1" d="M1722.4,87.1c-6.2,0-11.5-2.3-16-6.8c-4.5-4.5-6.8-9.9-6.8-16c0-6.2,2.3-11.6,6.8-16.2
				c4.5-4.6,9.9-6.9,16-6.9c6.4,0,11.8,2.3,16.3,6.9c4.5,4.6,6.8,10,6.8,16.2c0,6.2-2.3,11.5-6.8,16
				C1734.2,84.9,1728.8,87.1,1722.4,87.1z"/>
		</g>
		<rect x="1703.9" y="104.5" class="st0" width="37.3" height="144.5"/>
		<path class="st0" d="M1852.7,253c-21.8,0-39.9-7.3-54.5-22c-14.5-14.6-21.8-32.7-21.8-54.3c0-21.6,7.3-39.7,21.8-54.3
			c14.5-14.6,32.7-22,54.5-22c14.1,0,26.9,3.4,38.4,10.1c11.6,6.7,20.3,15.8,26.3,27.2l-32.1,18.8c-2.9-6-7.3-10.7-13.1-14.2
			c-5.9-3.5-12.5-5.2-19.8-5.2c-11.2,0-20.4,3.7-27.7,11.1c-7.3,7.4-11,16.9-11,28.5c0,11.4,3.7,20.8,11,28.2
			c7.3,7.4,16.6,11.1,27.7,11.1c7.5,0,14.2-1.7,20.1-5.1c5.9-3.4,10.3-8,13.1-14l32.4,18.5c-6.4,11.4-15.3,20.5-26.9,27.3
			C1879.6,249.6,1866.8,253,1852.7,253z"/>
		<g>
			<g>
				<path class="st1" d="M2053.6,46.7h37.3v202.3h-37.3v-17c-11,14.1-26.6,21.1-46.8,21.1c-19.5,0-36.1-7.4-49.8-22.1
					c-13.8-14.7-20.7-32.8-20.7-54.2c0-21.4,6.9-39.4,20.7-54.2c13.8-14.7,30.4-22.1,49.8-22.1c20.2,0,35.8,7,46.8,21.1V46.7z
					 M1984.9,206c7.6,7.6,17.2,11.4,28.8,11.4c11.6,0,21.1-3.8,28.6-11.4c7.5-7.6,11.3-17.4,11.3-29.3c0-11.9-3.8-21.7-11.3-29.3
					c-7.5-7.6-17-11.4-28.6-11.4c-11.6,0-21.1,3.8-28.8,11.4c-7.6,7.6-11.4,17.4-11.4,29.3C1973.5,188.6,1977.3,198.4,1984.9,206z"
					/>
			</g>
		</g>
		<g>
			<path class="st1" d="M2165.1,192c5,18.1,18.6,27.2,40.7,27.2c14.3,0,25-4.8,32.4-14.4l30.1,17.3c-14.3,20.6-35.3,30.9-63,30.9
				c-23.9,0-43.1-7.2-57.5-21.7c-14.4-14.4-21.7-32.7-21.7-54.6c0-21.8,7.1-39.9,21.4-54.5c14.3-14.5,32.6-21.8,54.9-21.8
				c21.2,0,38.7,7.3,52.4,22c13.8,14.6,20.7,32.8,20.7,54.3c0,4.8-0.5,9.9-1.4,15.3H2165.1z M2164.5,163.1h73.7
				c-2.1-9.8-6.5-17.1-13.1-22c-6.6-4.8-14.2-7.2-22.7-7.2c-10,0-18.3,2.6-24.9,7.7C2171,146.7,2166.6,153.9,2164.5,163.1z"/>
		</g>
		<g>
			<path class="st1" d="M2399.5,104.5h41l-54.9,144.5h-42.5l-54.9-144.5h41l35,101.1L2399.5,104.5z"/>
		</g>
	</g>
	<g>
		<g>
			<g>
				
					<linearGradient id="SVGID_1_" gradientUnits="userSpaceOnUse" x1="407.4437" y1="163.981" x2="406.0935" y2="-120.2328" gradientTransform="matrix(0.9999 -1.653827e-02 1.653827e-02 0.9999 -62.0514 143.6909)">
					<stop  offset="9.496934e-03" style="stop-color:#6E44FF"/>
					<stop  offset="1" style="stop-color:#8585FF"/>
				</linearGradient>
				<path class="st2" d="M305.3,251.9l-3.5-213.1c-0.3-21.1,16.4-38.4,37.5-38.8l6.1-0.1c21.1-0.3,38.4,16.4,38.8,37.5l3.5,213.1
					c0.3,21.1-16.4,38.4-37.5,38.8l-6.1,0.1C323,289.8,305.6,273,305.3,251.9z"/>
			</g>
			<g>
				
					<linearGradient id="SVGID_2_" gradientUnits="userSpaceOnUse" x1="621.5085" y1="-8.0448" x2="400.2079" y2="129.7711" gradientTransform="matrix(0.9999 -1.653827e-02 1.653827e-02 0.9999 -63.1495 138.0501)">
					<stop  offset="9.496934e-03" style="stop-color:#6E44FF"/>
					<stop  offset="1" style="stop-color:#8585FF"/>
				</linearGradient>
				<path class="st3" d="M325.3,216.9l182.8-109.6c18.1-10.8,41.5-5,52.3,13.1l3.2,5.3c10.8,18.1,5,41.5-13.1,52.3L367.7,287.6
					c-18.1,10.8-41.5,5-52.3-13.1l-3.2-5.3C301.4,251.1,307.2,227.7,325.3,216.9z"/>
			</g>
		</g>
		<g>
			<g>
				
					<linearGradient id="SVGID_3_" gradientUnits="userSpaceOnUse" x1="-4308.2979" y1="8201.2139" x2="-4309.6479" y2="7917.0015" gradientTransform="matrix(0.5232 0.8522 0.8522 -0.5232 -4470.8232 7980.7085)">
					<stop  offset="9.496934e-03" style="stop-color:#6E44FF"/>
					<stop  offset="1" style="stop-color:#8585FF"/>
				</linearGradient>
				<path class="st4" d="M199.8,8.3L18.2,119.8c-17.9,11-23.6,34.5-12.5,52.4l3.2,5.2c11,17.9,34.5,23.6,52.4,12.5L242.9,78.6
					c17.9-11,23.6-34.5,12.5-52.4l-3.2-5.2C241.2,2.9,217.7-2.7,199.8,8.3z"/>
			</g>
			<g>
				
					<linearGradient id="SVGID_4_" gradientUnits="userSpaceOnUse" x1="-4094.2344" y1="8029.189" x2="-4315.5337" y2="8167.0039" gradientTransform="matrix(0.5232 0.8522 0.8522 -0.5232 -4476.1704 7982.8125)">
					<stop  offset="9.496934e-03" style="stop-color:#6E44FF"/>
					<stop  offset="1" style="stop-color:#8585FF"/>
				</linearGradient>
				<path class="st5" d="M181,44l5.8,213c0.6,21.1,18.1,37.7,39.1,37.1l6.1-0.2c21.1-0.6,37.7-18.1,37.1-39.1l-5.8-213
					c-0.6-21.1-18.1-37.7-39.1-37.1l-6.1,0.2C197,5.4,180.4,23,181,44z"/>
			</g>
		</g>
	</g>
</g>
</svg>
